<svg width="41" height="41" viewBox="0 0 41 41" fill="none" xmlns="http://www.w3.org/2000/svg">
<path d="M9.56076 31.555H14.0052V20.4438H9.56076V31.555ZM27.3385 31.555H31.783V9.33274H27.3385V31.555ZM18.4497 31.555H22.8941V24.8883H18.4497V31.555ZM18.4497 20.4438H22.8941V15.9994H18.4497V20.4438ZM5.11632 40.4438C3.8941 40.4438 2.8478 40.0087 1.97743 39.1383C1.10706 38.2679 0.671875 37.2216 0.671875 35.9994V4.88829C0.671875 3.66607 1.10706 2.61977 1.97743 1.7494C2.8478 0.879033 3.8941 0.443848 5.11632 0.443848H36.2274C37.4497 0.443848 38.496 0.879033 39.3663 1.7494C40.2367 2.61977 40.6719 3.66607 40.6719 4.88829V35.9994C40.6719 37.2216 40.2367 38.2679 39.3663 39.1383C38.496 40.0087 37.4497 40.4438 36.2274 40.4438H5.11632ZM5.11632 35.9994H36.2274V4.88829H5.11632V35.9994Z" fill="black"/>
</svg>
