<svg width="40" height="41" viewBox="0 0 40 41" fill="none" xmlns="http://www.w3.org/2000/svg">
<path d="M12.3688 8.12567L10.5506 2.67112L13.096 1.85294L14.9142 7.26203L12.3688 8.12567ZM18.6415 5.89839V0.443848H21.3688V5.89839H18.6415ZM27.6415 8.12567L25.096 7.26203L26.9142 1.85294L29.4597 2.71657L27.6415 8.12567ZM2.09604 40.4438L1.55058 36.8529L11.1415 35.3984C11.4748 35.3378 11.7703 35.1939 12.0279 34.9666C12.2854 34.7393 12.4748 34.459 12.596 34.1257L14.1415 29.3075C14.293 28.8832 14.293 28.4742 14.1415 28.0802C13.99 27.6863 13.7172 27.3832 13.3233 27.1711L11.8233 31.8984L8.36876 30.8075L12.3688 18.1711C12.4294 17.9893 12.4597 17.7923 12.4597 17.5802C12.4597 17.3681 12.4294 17.1711 12.3688 16.9893L6.27785 28.4438C5.79301 29.3226 5.11876 30.0272 4.25513 30.5575C3.39149 31.0878 2.45967 31.3529 1.45967 31.3529H0.00512695V27.7166H1.45967C1.79301 27.7166 2.10361 27.6332 2.39149 27.4666C2.67937 27.2999 2.89907 27.0651 3.05058 26.762L11.096 11.5802L13.3688 12.8529C14.49 13.4893 15.2854 14.406 15.7551 15.6029C16.2248 16.7999 16.2627 18.0196 15.8688 19.262L14.4597 23.7166C15.793 24.2317 16.7551 25.1408 17.346 26.4438C17.9369 27.7469 18.0203 29.0802 17.596 30.4438L16.0506 35.262C15.7172 36.2317 15.1642 37.0575 14.3915 37.7393C13.6188 38.4211 12.7172 38.8378 11.6869 38.9893L2.09604 40.4438ZM37.9142 40.4438L28.3233 38.9893C27.293 38.8378 26.3915 38.4211 25.6188 37.7393C24.846 37.0575 24.293 36.2317 23.9597 35.262L22.4142 30.4438C21.99 29.0802 22.0733 27.7469 22.6642 26.4438C23.2551 25.1408 24.2172 24.2317 25.5506 23.7166L24.1415 19.262C23.7476 18.0196 23.7854 16.7999 24.2551 15.6029C24.7248 14.406 25.5203 13.4893 26.6415 12.8529L28.9142 11.5802L36.9597 26.762C37.1112 27.0651 37.3309 27.2999 37.6188 27.4666C37.9066 27.6332 38.2172 27.7166 38.5506 27.7166H40.0051V31.3529H38.5506C37.5506 31.3529 36.6188 31.0878 35.7551 30.5575C34.8915 30.0272 34.2173 29.3226 33.7324 28.4438L27.6415 16.9893C27.5809 17.1711 27.5506 17.3681 27.5506 17.5802C27.5506 17.7923 27.5809 17.9893 27.6415 18.1711L31.6415 30.8075L28.1869 31.8984L26.6869 27.1711C26.293 27.3832 26.0203 27.6863 25.8688 28.0802C25.7172 28.4742 25.7172 28.8832 25.8688 29.3075L27.4142 34.1257C27.5354 34.459 27.7248 34.7393 27.9824 34.9666C28.24 35.1939 28.5354 35.3378 28.8688 35.3984L38.4597 36.8529L37.9142 40.4438Z" fill="black"/>
</svg>
