<svg width="48" height="48" viewBox="0 0 48 48" fill="none" xmlns="http://www.w3.org/2000/svg">
<path d="M2.84601 44.3085H45.8135C46.5215 44.3085 47.1193 44.5082 47.607 44.9076C48.0947 45.307 48.3386 45.8001 48.3386 46.3868C48.3386 46.9736 48.0947 47.463 47.607 47.8551C47.1193 48.2476 46.5215 48.4438 45.8135 48.4438H2.84601C2.13801 48.4438 1.5431 48.2442 1.06128 47.8448C0.579469 47.4454 0.338562 46.9523 0.338562 46.3656C0.338562 45.7788 0.579469 45.2892 1.06128 44.8967C1.5431 44.5046 2.13801 44.3085 2.84601 44.3085ZM17.4065 38.2388C16.6989 38.2388 16.1043 38.0401 15.6225 37.6428C15.1406 37.2454 14.8997 36.7548 14.8997 36.1709V21.8967H7.80425C6.74298 21.8967 6.00186 21.5169 5.58088 20.7574C5.15991 19.9979 5.26638 19.2709 5.90029 18.5765L22.3345 1.18435C22.6152 0.912431 22.9284 0.721031 23.2744 0.610158C23.6203 0.499284 23.9721 0.443848 24.3297 0.443848C24.6874 0.443848 25.0392 0.499284 25.3851 0.610158C25.731 0.721031 26.0443 0.912431 26.3249 1.18435L42.7032 18.5765C43.3254 19.2709 43.426 19.9979 43.005 20.7574C42.584 21.5169 41.8429 21.8967 40.7816 21.8967H33.7774V36.1709C33.7774 36.7548 33.5335 37.2454 33.0458 37.6428C32.5581 38.0401 31.9605 38.2388 31.253 38.2388H17.4065ZM19.9139 34.089H28.7456V16.7295H34.6458L24.3297 5.92117L14.0136 16.7295H19.9139V34.089Z" fill="black"/>
</svg>
